<?xml version="1.0" encoding="utf-8"?>
<!-- Generator: Adobe Illustrator 27.0.1, SVG Export Plug-In . SVG Version: 6.00 Build 0)  -->
<svg version="1.1" id="Layer_5" xmlns="http://www.w3.org/2000/svg" xmlns:xlink="http://www.w3.org/1999/xlink" x="0px" y="0px"
	 viewBox="0 0 512 512" style="enable-background:new 0 0 512 512;" xml:space="preserve">
<style type="text/css">
	.st0{fill-rule:evenodd;clip-rule:evenodd;fill:#6E8C4E;}
</style>
<path class="st0" d="M448,512h-88c-22.1,0-40-17.9-40-40V360c0-22.1,17.9-40,40-40h12.9c8.3,0,16.8-6.7,19.1-15l8.5-32
	c2.5-9.3-2.8-17-11.9-17H360c-22.1,0-40-17.9-40-40v-16c0-22.1,17.9-40,40-40h24c8.8,0,16-7.2,16-16v-32c0-8.8-7.2-16-16-16h-48
	c-44.2,0-80,35.8-80,80v40c0,22.1-17.9,40-40,40h-7.6c-9,0-16.4,7.7-16.4,17v32c0,8.4,6.7,15,15.1,15h8.9c22.1,0,40,17.9,40,40v112
	c0,22.1-17.9,40-40,40h-8c-8.8,0-16-7.2-16-16c0-8.8,7.2-16,16-16c8.8,0,16-7.2,16-16v-96c0-8.8-7.2-16-16-16h-10.5
	c-20.7,0-37.5-16.6-37.5-37.6v-47.9c0-23.2,18.4-42.5,41-42.5h7c8.8,0,16-7.2,16-16v-40c0-57.4,46.6-104,104-104h64
	c22.1,0,40,17.9,40,40v48c0,22.1-17.9,40-40,40h-24h-16v16c0,8.8,7.2,16,16,16h30c22.7,0,37.4,19.4,33.1,42.5l-9,47.9
	c-3.9,21-23.8,37.6-44.5,37.6H368c-8.8,0-16,7.2-16,16v96c0,8.8,7.2,16,16,16h80c17.7,0,32-14.3,32-32V64c0-17.7-14.3-32-32-32H64
	c-17.7,0-32,14.3-32,32v384c0,17.7,14.3,32,32,32h16c8.8,0,16,7.2,16,16c0,8.8-7.2,16-16,16H64c-35.3,0-64-28.7-64-64V64
	C0,28.6,28.7,0,64,0h384c35.4,0,64,28.6,64,64v384C512,483.3,483.4,512,448,512L448,512z M144,480c8.8,0,16,7.2,16,16
	c0,8.8-7.2,16-16,16c-8.8,0-16-7.2-16-16C128,487.2,135.2,480,144,480L144,480z"/>
</svg>
