<?xml version="1.0" encoding="UTF-8"?><svg id="Layer_1" xmlns="http://www.w3.org/2000/svg" width="500" height="296" viewBox="0 0 500 296"><defs><style>.cls-1{fill:#4d453e;}</style></defs><path class="cls-1" d="M256.44,272.62v13.6h-110.76v-13.6c31.19-8.8,20.79-34.39-36.79-130.76l-33.59,37.99c1.2,77.58,7.6,92.77,31.99,92.77v13.6H6.92v-13.6c27.59,0,32.39-19.59,32.39-126.36S34.51,19.9,6.92,19.9V6.3H107.29v13.6c-27.59,0-32.39,19.59-32.39,126.36v7.6C156.87,60.28,174.87,31.89,139.28,19.9V6.3h102.37v13.6c-19.99,2-44.79,23.99-106.37,92.37,70.78,119.16,96.37,155.95,121.16,160.35Z"/><path class="cls-1" d="M370,216.63c0,43.59,6.4,53.98,24.39,53.98v9.6c-7.6,6-16.79,10.8-29.19,10.8-17.59,0-30.79-9.2-31.59-39.99-11.6,28.79-37.59,39.99-59.98,39.99-26.39,0-46.79-15.99-46.79-47.18,0-71.18,106.77-58.38,106.77-94.77,0-24.39-4-50.38-35.19-50.38-17.19,0-28.39,8.4-28.39,20.39,0,8.8,6.4,15.99,16,14.8,6.8,16.79-4.4,31.99-23.59,31.99-15.6,0-29.59-11.2-29.59-31.99,0-29.99,28.79-48.78,67.98-48.78s69.18,19.19,69.18,73.18v58.38Zm-36.39-2.4v-40.39c-16.79,19.59-65.98,21.59-65.98,61.98,0,18.39,10.8,29.59,25.59,29.59,21.19,0,40.39-21.19,40.39-51.18Z"/><path class="cls-1" d="M445.17,20.7c-8.8,0-19.19,6.4-19.19,31.59,0,10.4,2,22.79,6.4,37.19h41.99v16.39h-41.99v42.79c0,105.57,4.4,123.96,32.39,123.96v13.6h-99.17v-13.6c27.99,0,29.99-18.39,29.99-123.96v-42.79h-27.99v-16.39h28.39c2.4-59.58,28.39-87.97,59.98-87.97,23.19,0,39.19,13.6,39.19,32.79,0,15.59-10.4,29.19-25.59,29.19-10,0-15.99-5.2-19.19-10.4,14.8-10.8,10.8-32.39-5.2-32.39Z"/></svg>